<svg t="1723878591786" class="icon" viewBox="0 0 1066 1024" version="1.1" xmlns="http://www.w3.org/2000/svg" p-id="902" width="200" height="200"><path d="M491.52 0a491.52 491.52 0 1 0 491.52 491.52A492.0832 492.0832 0 0 0 491.52 0z m0 901.12a409.6 409.6 0 1 1 409.6-409.6 410.0608 410.0608 0 0 1-409.6 409.6z" fill="#231815" p-id="903"></path><path d="M716.8 450.56h-184.32V266.24a40.96 40.96 0 0 0-81.92 0v184.32H266.24a40.96 40.96 0 0 0 0 81.92h184.32v184.32a40.96 40.96 0 0 0 81.92 0v-184.32h184.32a40.96 40.96 0 0 0 0-81.92z"  p-id="904"></path></svg>