<svg xmlns="http://www.w3.org/2000/svg" fill="none" viewBox="0 0 1024 1024" height="1024" width="1024">
<rect fill="white" height="1024" width="1024"></rect>
<path fill="white" d="M554.706 181.018C600.031 136.342 674.83 134.395 728.96 163.963C768.538 184.632 811.917 195.848 856.037 201.965C863.452 274.911 917.489 337.754 905.254 413.109C900.805 446.385 886.531 487.446 851.124 497.827C803.575 491.061 756.396 481.514 708.291 480.309C698.188 423.583 670.938 367.785 621.813 335.436C596.045 316.621 564.624 309.113 534.315 301.42C536.354 261.378 522.08 212.346 554.706 181.018Z"></path>
<path fill="white" d="M197.857 547.323C236.693 536.942 277.754 537.868 317.424 531.566C337.445 613.502 407.147 678.199 490.845 690.527C489.176 733.349 498.26 777.283 488.249 819.363C460.165 879.24 378.228 889.9 322.337 866.542C282.018 848.004 239.381 834.564 194.798 832.154C187.012 789.703 171.348 749.476 154.386 709.991C131.492 654.934 142.8 578.744 197.857 547.323Z"></path>
<path fill="#FEFEFF" d="M266.54 179.627C308.435 162.85 350.33 140.142 396.953 142.923C435.789 144.035 474.162 170.729 484.265 209.102C489.456 239.411 486.212 270.462 486.212 301.049C433.287 313.099 381.659 339.237 350.887 385.396C328.92 413.573 324.285 449.721 311.865 482.255C275.716 491.895 238.085 494.954 200.824 496.807C156.612 497.178 125.839 453.243 119.629 413.202C106.652 337.939 165.973 276.672 169.773 203.077C202.492 197.331 235.675 192.418 266.54 179.627Z"></path>
<path fill="#FEFEFF" d="M706.068 528.229C753.525 532.956 805.987 527.024 848.16 553.254C893.67 590.979 894.412 660.773 870.869 711.103C852.794 747.715 838.705 786.181 834.071 827.057C784.575 835.677 739.715 858.571 692.629 874.884C638.869 892.958 565.831 877.479 544.698 819.086C533.76 777.005 540.156 732.607 538.024 689.599C576.861 677.921 616.438 663.183 645.913 634.079C676.871 606.18 693.555 567.065 706.068 528.229Z"></path>
<path fill="#3D444A" d="M250.042 136.897C299.537 116.042 351.072 91.1094 406.592 98.2464C448.58 100.934 485.563 124.94 512.165 156.547C554.801 114.374 615.605 91.2946 675.575 99.2658C734.339 104.086 780.961 149.318 840.467 151.079C861.971 154.601 900.066 149.225 901.086 180.647C902.013 252.666 952.898 312.264 951.693 384.469C954.752 438.784 934.824 493.1 896.173 531.565C921.663 570.216 935.659 616.561 930.468 663.09C928.151 706.654 903.496 744.007 889.314 784.141C879.397 810.836 883.475 839.662 880.602 867.468C849.458 880.816 813.125 875.533 781.796 889.714C733.32 910.383 682.341 932.814 628.211 926.14C583.72 924.009 544.327 899.446 516.057 866.356C478.611 906.49 423.833 927.252 369.146 923.452C312.699 924.194 266.911 883.133 211.113 881.094C191.277 877.479 168.661 882.484 151.051 871.732C142.431 843.277 147.343 812.133 135.386 784.419C120 744.471 98.3107 705.541 98.218 661.607C94.2324 613.502 113.234 567.528 141.133 529.341C101.091 495.509 70.8745 447.404 72.3575 393.366C67.167 323.572 120.185 267.495 121.761 198.813C124.449 185.281 120.556 167.485 134.088 158.957C172.832 152.654 213.337 153.025 250.042 136.897ZM266.54 179.627C235.675 192.418 202.492 197.33 169.773 203.077C165.973 276.672 106.653 337.939 119.629 413.202C125.839 453.243 156.612 497.178 200.824 496.807C238.085 494.953 275.716 491.895 311.865 482.255C324.285 449.721 328.92 413.573 350.887 385.395C381.66 339.236 433.287 313.098 486.212 301.049C486.212 270.462 489.456 239.411 484.265 209.102C474.162 170.729 435.789 144.035 396.953 142.922C350.331 140.142 308.435 162.85 266.54 179.627ZM554.709 181.017C522.083 212.346 536.357 261.378 534.317 301.419C564.627 309.113 596.048 316.62 621.815 335.436C670.94 367.784 698.191 423.583 708.294 480.308C756.399 481.513 803.577 491.06 851.127 497.826C886.534 487.445 900.808 446.384 905.257 413.109C917.492 337.753 863.455 274.911 856.039 201.965C811.92 195.847 768.541 184.632 728.963 163.962C674.833 134.395 600.034 136.341 554.709 181.017ZM473.514 351.379C409.003 366.765 359.322 428.681 361.175 495.509C357.931 581.246 442.371 655.953 526.995 643.811C609.951 636.396 676.594 551.215 659.447 468.815C646.656 385.395 554.06 328.114 473.514 351.379ZM197.858 547.322C142.801 578.744 131.493 654.934 154.387 709.991C171.349 749.476 187.013 789.703 194.799 832.154C239.382 834.564 282.019 848.004 322.339 866.542C378.23 889.899 460.166 879.24 488.251 819.363C498.261 777.282 489.178 733.348 490.846 690.526C407.149 678.199 337.447 613.502 317.426 531.565C277.755 537.868 236.695 536.941 197.858 547.322ZM706.069 528.229C693.556 567.065 676.872 606.179 645.914 634.079C616.439 663.183 576.862 677.92 538.025 689.599C540.157 732.607 533.761 777.005 544.698 819.085C565.831 877.479 638.87 892.958 692.63 874.883C739.715 858.57 784.576 835.676 834.072 827.056C838.706 786.181 852.795 747.715 870.869 711.103C894.412 660.773 893.671 590.978 848.161 553.254C805.987 527.023 753.525 532.956 706.069 528.229Z"></path>
<path fill="#E7A948" d="M473.513 351.38C554.059 328.115 646.655 385.396 659.446 468.816C676.593 551.216 609.95 636.397 526.994 643.812C442.369 655.954 357.93 581.247 361.174 495.51C359.32 428.682 409.001 366.766 473.513 351.38ZM483.43 388.826C430.505 402.173 390.186 458.806 401.864 513.492C410.485 566.973 463.039 610.444 517.725 604.79C576.212 600.99 628.117 546.304 621.073 486.427C618.014 420.525 546.273 370.844 483.43 388.826Z"></path>
<path fill="#44433C" d="M483.433 388.824C546.276 370.843 618.017 420.524 621.075 486.426C628.12 546.302 576.214 600.989 517.728 604.789C463.042 610.443 410.487 566.972 401.867 513.49C390.189 458.804 430.508 402.171 483.433 388.824ZM483.433 425.807C431.62 442.12 418.366 517.94 460.724 551.493C501.415 590.978 581.312 562.894 584.834 505.149C594.752 450.555 533.392 405.972 483.433 425.807Z"></path>
<path fill="#E8A745" d="M483.43 425.808C533.389 405.973 594.749 450.556 584.831 505.15C581.309 562.895 501.411 590.979 460.721 551.494C418.362 517.941 431.617 442.121 483.43 425.808ZM492.883 463.903C470.546 475.397 465.726 510.711 488.342 524.521C511.143 543.801 546.55 523.78 548.126 495.788C546.828 469.465 516.148 452.688 492.883 463.903Z"></path>
<path fill="#41403B" d="M492.883 463.903C516.148 452.688 546.828 469.464 548.125 495.788C546.55 523.78 511.142 543.8 488.341 524.521C465.725 510.71 470.545 475.396 492.883 463.903Z"></path>
</svg>
